# xmcd
#
# Track frame offsets:
#	150
#	16959
#	36459
#	49661
#	74739
#	91810
#	106798
#	125140
#
# Disc length: 1930 seconds
#
# Revision: 1
# Processed by: cddbd v1.5.1PL0 Copyright (c) Steve Scherf et al.
# Submitted via: EasyCDDAExtractor 7.0.9.1
#
DISCID=6c078808
DTITLE=Yvan Dumont - Voyages
DYEAR=1900
DGENRE=
TTITLE0=Invitation au voyage
TTITLE1=Soleil blanc
TTITLE2=Soirée tropicale
TTITLE3=Vieux blues
TTITLE4=Train de nuit
TTITLE5=Visage
TTITLE6=Voyages
TTITLE7=Salle Wagram
EXTD=
EXTT0=
EXTT1=
EXTT2=
EXTT3=
EXTT4=
EXTT5=
EXTT6=
EXTT7=
PLAYORDER=
